<svg xmlns="http://www.w3.org/2000/svg" width="25" height="17" viewBox="0 0 25 17">
  <defs>
    <linearGradient id="currency-paper-a" x1="50%" x2="50%" y1="2.784%" y2="100%">
      <stop offset="0%" stop-color="#C544FC"/>
      <stop offset="100%" stop-color="#5B56D7"/>
    </linearGradient>
  </defs>
  <path fill="url(#currency-paper-a)" fill-rule="evenodd" d="M20.0002,16 L18.0502,16 C18.2502,15.021 19.0222,14.25 20.0002,14.05 L20.0002,16 Z M1.0002,16 L1.0002,14.05 C1.9782,14.25 2.7502,15.021 2.9502,16 L1.0002,16 Z M1.0002,4 L2.9502,4 C2.7502,4.979 1.9782,5.75 1.0002,5.95 L1.0002,4 Z M20.0002,4 L20.0002,5.95 C19.0222,5.75 18.2502,4.979 18.0502,4 L20.0002,4 Z M17.0512,16 L3.9492,16 C3.7282,14.473 2.5272,13.271 1.0002,13.051 L1.0002,6.949 C2.5272,6.729 3.7282,5.527 3.9492,4 L17.0512,4 C17.2722,5.527 18.4732,6.729 20.0002,6.949 L20.0002,13.051 C18.4732,13.271 17.2722,14.473 17.0512,16 L17.0512,16 Z M20.5002,3 L17.5002,3 L3.5002,3 L0.5002,3 C0.2242,3 0.0002,3.224 0.0002,3.5 L0.0002,6.5 L0.0002,13.5 L0.0002,16.5 C0.0002,16.776 0.2242,17 0.5002,17 L3.5002,17 L17.5002,17 L20.5002,17 C20.7762,17 21.0002,16.776 21.0002,16.5 L21.0002,13.5 L21.0002,6.5 L21.0002,3.5 C21.0002,3.224 20.7762,3 20.5002,3 L20.5002,3 Z M25.0002,0.5 L25.0002,13.5 C25.0002,13.776 24.7762,14 24.5002,14 L22.5002,14 C22.2242,14 22.0002,13.776 22.0002,13.5 C22.0002,13.224 22.2242,13 22.5002,13 L24.0002,13 L24.0002,1 L5.0002,1 L5.0002,1.5 C5.0002,1.776 4.7762,2 4.5002,2 C4.2242,2 4.0002,1.776 4.0002,1.5 L4.0002,0.5 C4.0002,0.224 4.2242,0 4.5002,0 L24.5002,0 C24.7762,0 25.0002,0.224 25.0002,0.5 L25.0002,0.5 Z M12.0002,11.5 C12.0002,12.085 11.6992,12.381 11.0002,12.469 L11.0002,10.68 C11.5742,10.874 12.0002,11.101 12.0002,11.5 L12.0002,11.5 Z M9.0002,8.5 C9.0002,7.915 9.3012,7.619 10.0002,7.531 L10.0002,9.32 C9.4262,9.126 9.0002,8.899 9.0002,8.5 L9.0002,8.5 Z M12.0002,8.5 C12.0002,8.776 12.2242,9 12.5002,9 C12.7762,9 13.0002,8.776 13.0002,8.5 C13.0002,7.816 12.7112,6.722 11.0002,6.538 L11.0002,6.5 C11.0002,6.224 10.7762,6 10.5002,6 C10.2242,6 10.0002,6.224 10.0002,6.5 L10.0002,6.538 C8.2892,6.722 8.0002,7.816 8.0002,8.5 C8.0002,9.713 9.1972,10.129 10.0002,10.371 L10.0002,12.469 C9.3012,12.381 9.0002,12.085 9.0002,11.5 C9.0002,11.224 8.7762,11 8.5002,11 C8.2242,11 8.0002,11.224 8.0002,11.5 C8.0002,12.184 8.2892,13.278 10.0002,13.462 L10.0002,13.5 C10.0002,13.776 10.2242,14 10.5002,14 C10.7762,14 11.0002,13.776 11.0002,13.5 L11.0002,13.462 C12.7112,13.278 13.0002,12.184 13.0002,11.5 C13.0002,10.287 11.8032,9.871 11.0002,9.629 L11.0002,7.531 C11.6992,7.619 12.0002,7.915 12.0002,8.5 L12.0002,8.5 Z"/>
</svg>
